<?xml version="1.0" encoding="UTF-8" standalone="no"?>
<!DOCTYPE svg PUBLIC "-//W3C//DTD SVG 1.1//EN" "http://www.w3.org/Graphics/SVG/1.1/DTD/svg11.dtd">
<svg width="100%" height="100%" viewBox="0 0 99 118" version="1.1" xmlns="http://www.w3.org/2000/svg" xmlns:xlink="http://www.w3.org/1999/xlink" xml:space="preserve" xmlns:serif="http://www.serif.com/" style="fill-rule:evenodd;clip-rule:evenodd;stroke-linejoin:round;stroke-miterlimit:2;">
    <path d="M91.9,15.6C81,-0.1 59.3,-4.7 43.7,5.3L16.2,22.8C8.7,27.5 3.5,35.2 2,43.9C0.7,51.2 1.8,58.7 5.3,65.2C2.9,68.8 1.3,72.8 0.6,77C-1,85.9 1.1,95.1 6.3,102.4C17.3,118.1 38.9,122.7 54.5,112.8L82,95.3C89.5,90.6 94.7,82.9 96.2,74.2C97.5,66.9 96.4,59.4 92.9,52.9C95.3,49.3 96.9,45.3 97.6,41.1C99.2,32.1 97.2,22.9 91.9,15.6" style="fill:rgb(70,170,86);fill-rule:nonzero;"/>
    <path d="M45.738,37.597L16.26,56.532C16.26,56.532 14.6,52.1 15.6,46.7C16.5,41.5 19.7,36.8 24.2,34L51.6,16.5C53.3,15.4 55.2,14.6 57.2,14C66.1,11.7 76.715,17.72 76.215,18.02L57.951,29.752L79.55,57.229C80.582,58.551 81.92,61.312 82.35,62.223L82.352,62.227C82.531,62.595 82.518,62.563 82.536,62.636C83.241,65.397 83.181,68.313 82.7,71.2C81.8,76.4 78.6,81.1 74.1,83.9L46.7,101.4C44.9,102.5 43,103.3 41,103.9C32.1,106.2 22.8,102.7 17.6,95.2C14.4,90.8 13.2,85.3 14.1,79.9C14.175,79.563 14.25,79.239 14.325,78.919L14.475,78.281C14.55,77.961 14.625,77.638 14.7,77.3L15.2,75.7L16.6,76.7C19.9,79.1 23.5,80.9 27.4,82.1L28.4,82.4L28.3,83.4C28.2,84.8 28.6,86.3 29.4,87.5C31,89.8 33.8,90.9 36.5,90.2C37.1,90 37.7,89.8 38.2,89.5L65.6,72C67,71.1 67.9,69.8 68.2,68.2C68.307,67.63 68.325,67.046 68.263,66.473L45.374,37.831L45.738,37.597Z" style="fill:white;fill-rule:nonzero;"/>
</svg>
